<svg xmlns="http://www.w3.org/2000/svg" width="242" height="70" fill="none"><path fill="#DA8A40" d="M16.33.41h36.586c9.045 0 16.33 7.248 16.33 16.222v36.357c0 8.989-7.285 16.223-16.33 16.223H16.33C7.3 69.212 0 61.963 0 52.989V16.646C0 7.658 7.285.41 16.33.41Z"/><path fill="#FCFDFF" d="M33.524 36.888c-.77 4.964-5.477 8.527-11.267 8.527-7.003 0-12.094-5.048-12.094-12.033 0-.863.085-5.317 3.48-8.696 1.54-1.528 3.137-2.22 3.879-2.546 1.726-.735 3.48-1.032 14.048-1.032h.6c1.197 1.485 2.395 2.97 3.593 4.44-3.48-.014-8.258.057-13.378.34-.941.056-2.353.155-3.75 1.074-1.94 1.273-3.124 3.563-3.124 6.405 0 4.384 2.867 7.48 6.874 7.48 2.867 0 5.448-1.95 6.147-4.61l4.992.651Z"/><path fill="#FCFDFF" d="M40.157 35.346c.185 3.125 3.095 5.53 6.689 5.53 4.264 0 7.33-3.154 7.33-7.481 0-2.63-1.083-4.808-2.866-6.123-1.298-.961-2.639-1.173-4.293-1.357-2.667-.297-6.475-.551-11.253-.34-1.198-1.484-2.396-2.969-3.594-4.44 2.667-.028 4.949-.013 6.732 0 3.907.029 5.876.1 6.874.142 1.697.07 2.539.113 2.838.142 1.127.155 5.32.749 8.272 4.312 2.41 2.913 2.639 6.307 2.639 7.664 0 6.971-5.249 12.033-12.55 12.033-7.645 0-12.709-5.684-11.967-13.546h12.166v3.479l-7.017-.015ZM50.794 20.81c-.285-.1-.67-.227-1.14-.354-.257-.07-.457-.127-.714-.17-.713-.141-1.283-.155-1.996-.17-.214 0-.5-.013-.856 0v-9.544h4.706V20.81ZM35.987 51.826c.071.353.442 2.092 2.153 3.11 0 0 1.27.68 2.867.693.185 0 2.624-.085 4.222-1.88 1.212-1.372 1.297-2.998 1.326-3.677.014-.184 0-.198-.029-1.937-.014-.89-.028-1.612-.028-2.093.599.057 1.326.071 2.168 0 .656-.056 1.24-.17 1.697-.282v4.298c-.014.707-.086 2.842-1.455 4.907-1.012 1.54-2.367 2.418-3.123 2.828a10.218 10.218 0 0 1-5.163 1.244 10.118 10.118 0 0 1-2.98-.622 9.294 9.294 0 0 1-2.582-1.5 9.293 9.293 0 0 1-2.168-2.544 8.205 8.205 0 0 1-.984-2.602c1.355.014 2.71.042 4.079.057Z"/><path fill="#FCFDFF" d="M38.128 47.584h-7.83c-1.126 0-2.04 1.046-2.04 2.333v.438c0 1.287.914 2.333 2.04 2.333h7.83c1.127 0 2.04-1.046 2.04-2.333v-.438c-.014-1.287-.927-2.334-2.04-2.334Z"/><path fill="#575D63" d="M98.376 47.492c-.362 3.735-3.86 6.46-8.3 6.46-5.117 0-8.819-3.62-8.819-8.623 0-4.99 3.702-8.623 8.79-8.623 4.396 0 7.866 2.74 8.285 6.547l-4.51.475c-.362-1.658-1.866-2.884-3.615-2.884-2.415 0-4.063 1.817-4.063 4.47 0 2.654 1.663 4.47 4.034 4.47 1.735 0 3.253-1.196 3.629-2.84l4.569.548ZM100.386 53.39V37.282h4.901v5.897h5.393v-5.897h4.901v16.106h-4.901v-6.416h-5.393v6.416h-4.901Z"/><path fill="#575D63" fill-rule="evenodd" d="M129.012 53.39h5.118l-5.06-16.107h-7.128l-5.046 16.106h5.119l.694-2.422h5.609l.694 2.422Zm-1.633-5.855h-3.716l1.851-6.143 1.865 6.143Z" clip-rule="evenodd"/><path fill="#575D63" d="M135.475 53.39V37.282h4.901V49.25h5.914v4.138h-10.815ZM148.184 53.39V37.282h4.901V49.25h5.913v4.138h-10.814ZM172.632 49.568v3.821h-11.755V37.283H172.4v3.806h-6.809v2.452h5.913v3.288h-5.913v2.74h7.041ZM185.253 47.52V37.284h4.554v16.106h-5.103l-5.523-10.209v10.21h-4.555V37.282h5.104l5.523 10.238ZM200.724 46.93v-2.841h8.79c.593 5.71-3.051 9.848-8.617 9.848-5.248 0-9.065-3.62-9.065-8.623 0-4.989 3.817-8.623 9.065-8.623 3.947 0 7.099 2.25 7.851 5.393l-4.511.837c-.39-1.212-1.764-2.091-3.354-2.091-2.415 0-4.15 1.86-4.15 4.47 0 2.581 1.807 4.47 4.352 4.47 1.981 0 3.629-1.24 3.774-2.884h-4.135v.043ZM223.35 49.568v3.821h-11.754V37.283h11.523v3.806h-6.81v2.452h5.914v3.288h-5.914v2.74h7.041ZM224.766 48.083h4.236c.029 1.37 1.301 2.38 3.065 2.38 1.446 0 2.371-.679 2.371-1.573 0-2.84-9.585-.043-9.585-6.633 0-3.33 2.863-5.537 6.925-5.537 4.063 0 6.998 2.365 7.012 5.624h-4.077c0-1.24-1.2-2.134-2.79-2.134-1.374 0-2.328.605-2.328 1.456 0 2.697 9.586-.043 9.586 6.547 0 3.403-2.993 5.739-7.258 5.739-4.15 0-7.157-2.48-7.157-5.87Z"/><path fill="#575D63" fill-rule="evenodd" d="M119.49 25.992a.64.64 0 0 1-.26.387.997.997 0 0 1-.389.162c-.26.096-.552.16-.779.29-.292.129-.551.194-.779.29-.292.13-.584.194-.843.29-.195.097-.39.194-.584.323-.163.13-.292.29-.422.484s-.162.452-.162.774c0 .613.162 1.065.454 1.42.292.29.844.451 1.655.451s1.363-.161 1.655-.452c.292-.322.454-.774.454-1.354v-3.065Zm-2.142-6.548c1.46 0 2.499.29 3.213.839.681.58 1.006 1.29 1.006 2.129v7.258c0 .29-.033.612-.163.967a2.35 2.35 0 0 1-.616.968c-.325.29-.747.548-1.298.742-.552.193-1.266.29-2.142.29-.876 0-1.59-.097-2.141-.29a3.796 3.796 0 0 1-1.298-.742c-.325-.29-.552-.613-.617-.968-.097-.387-.162-.677-.162-.967v-1.194c0-.613.162-1.193.454-1.71.325-.483.779-.87 1.363-1.064.292-.129.616-.194 1.006-.323.389-.129.746-.258 1.136-.387.389-.129.681-.258.908-.322.26-.097.422-.162.487-.162a.943.943 0 0 1 .26-.128c.097-.033.194-.162.324-.258.097-.13.162-.259.26-.388.097-.16.097-.322.097-.548v-.452c0-.16-.033-.322-.097-.483-.033-.162-.163-.323-.325-.452-.162-.161-.389-.258-.681-.387-.26-.097-.617-.13-1.039-.13-.843 0-1.363.162-1.655.485-.259.29-.421.677-.421 1.064 0 .097-.098.162-.163.162h-1.784c-.098 0-.163-.097-.163-.162v-.42c0-.419.098-.773.26-1.16.162-.388.422-.678.746-.968.325-.258.779-.484 1.331-.613.551-.097 1.168-.226 1.914-.226Zm-28.685 6.548a.642.642 0 0 1-.26.387c-.13.097-.26.13-.39.162-.259.096-.55.16-.778.29-.292.129-.552.194-.779.29-.292.13-.584.194-.843.29-.195.097-.39.194-.585.323-.162.13-.292.29-.421.484-.13.194-.163.452-.163.774 0 .613.163 1.065.455 1.42.292.29.843.451 1.655.451.81 0 1.362-.161 1.72-.452.291-.322.454-.774.454-1.354l-.065-3.065Zm-2.077-6.548c1.46 0 2.499.29 3.213.839.681.58 1.006 1.29 1.006 2.129v7.258c0 .29-.033.612-.163.967-.097.387-.324.678-.616.968-.325.29-.746.548-1.298.742-.552.193-1.266.29-2.142.29-.876 0-1.59-.097-2.141-.29a3.804 3.804 0 0 1-1.298-.742c-.325-.29-.552-.613-.617-.968a2.863 2.863 0 0 1-.162-.967v-1.194c0-.613.162-1.193.454-1.71.325-.483.779-.87 1.363-1.064.292-.129.617-.194 1.006-.323.39-.129.746-.258 1.136-.387.39-.129.681-.258.908-.322.26-.097.422-.162.487-.162.097 0 .162-.096.26-.128.13-.033.194-.162.324-.258.13-.13.162-.259.26-.388.097-.16.13-.322.13-.548v-.452a.906.906 0 0 0-.13-.483c-.033-.162-.163-.323-.325-.452-.162-.161-.39-.258-.681-.387-.26-.097-.617-.13-1.039-.13-.843 0-1.362.162-1.654.485a1.63 1.63 0 0 0-.422 1.064c0 .097-.098.162-.163.162h-1.784c-.098 0-.163-.097-.163-.162v-.42c0-.419.098-.773.26-1.16.162-.388.422-.678.746-.968.325-.258.78-.484 1.33-.613.487-.097 1.169-.226 1.915-.226Zm24.37 0h1.201c.129 0 .162.13.162.194l-.422 1.548c0 .097-.097.13-.162.13h-.811c-.455 0-.779.031-1.071.16-.26.13-.487.259-.617.42-.162.161-.259.322-.292.484-.032.16-.032.322-.032.483V32.508c0 .097-.098.161-.163.161h-1.784c-.098 0-.163-.096-.163-.16V22.444c0-.162.033-.453.13-.775.033-.323.26-.677.552-1 .292-.323.714-.613 1.265-.87.422-.227 1.233-.356 2.207-.356Zm-6.035 9.806v.452c0 .193-.033.451-.13.774-.033.323-.26.678-.552 1-.292.323-.714.613-1.265.871-.584.258-1.331.387-2.337.387-1.006 0-1.784-.129-2.336-.387-.584-.258-1.006-.548-1.266-.87a2.573 2.573 0 0 1-.551-1c-.033-.323-.13-.582-.13-.775V19.67c0-.097.097-.161.162-.161h1.785c.097 0 .162.097.162.161v9.451c0 .323.033.549.098.71.032.161.13.387.26.484.129.161.324.29.616.42.26.128.616.16 1.135.16.455 0 .877-.032 1.169-.16.292-.13.486-.259.616-.388.162-.161.26-.323.292-.484.033-.161.13-.322.13-.742v-9.419c0-.096.097-.16.162-.16h1.785c.097 0 .162.096.162.16l.033 9.548ZM92.719 14.67h1.785c.097 0 .162.097.162.161v17.71c0 .096-.097.16-.162.16h-1.785c-.097 0-.162-.096-.162-.16V14.83c0-.064.065-.16.162-.16Z" clip-rule="evenodd"/></svg>