<svg xmlns="http://www.w3.org/2000/svg" width="116" height="60" fill="none"><path fill="#67605B" d="M59.063 25.624c-3.3 0-5.799-1-7.549-3s-2.65-4.849-2.65-8.548c0-3.7.9-6.55 2.65-8.55 1.75-1.999 4.3-2.999 7.55-2.999 3.249 0 5.748 1 7.548 3 1.75 2 2.65 4.85 2.65 8.549 0 3.7-.9 6.549-2.65 8.549-1.75 2-4.3 2.999-7.549 2.999Zm0-3.3c4.2 0 6.3-2.75 6.3-8.298 0-2.7-.55-4.8-1.6-6.15-1.05-1.4-2.65-2.1-4.7-2.1-2.05 0-3.65.7-4.699 2.1-1.05 1.4-1.6 3.45-1.6 6.15 0 5.549 2.1 8.299 6.3 8.299Zm14.047 2.904V2.88h3.6l10.7 16.048V2.881h3.8v22.347h-3.6L76.91 9.23v15.998h-3.8Zm22.746 0V2.88h14.148v3.3H99.705v6.148h9.449v3.25h-9.449v6.4h10.649v3.249H95.856ZM54.358 44.772c-1.3 0-2.35-.4-3.05-1.25-.7-.8-1.05-2-1.05-3.549 0-1.55.35-2.7 1.05-3.55.7-.85 1.75-1.25 3.05-1.25 1.3 0 2.35.4 3.05 1.25.7.85 1.05 2 1.05 3.55 0 1.55-.35 2.7-1.05 3.55-.75.85-1.75 1.25-3.05 1.25Zm0-1.05c.95 0 1.65-.3 2.15-.95.5-.65.75-1.549.75-2.799s-.25-2.15-.75-2.8c-.5-.65-1.2-.95-2.15-.95-1.95 0-2.9 1.25-2.9 3.75 0 1.25.25 2.15.75 2.8.45.65 1.2.95 2.15.95Zm5.7.905v-6.65h.8l.25 1.25c.45-.85 1.05-1.25 1.85-1.25.15 0 .3 0 .45.05v1h-.3c-.5 0-.9.15-1.2.4-.3.25-.55.65-.65 1.2v4h-1.2Zm8.592-.002-.2-1.05c-.55.8-1.3 1.2-2.2 1.2-.65 0-1.2-.2-1.6-.55-.4-.4-.6-.9-.6-1.5 0-.7.25-1.25.7-1.6.5-.4 1.15-.6 2-.6h1.55v-.4c0-.5-.1-.8-.3-1-.2-.2-.55-.3-1.05-.3-.3 0-.65.05-1.05.1-.35.05-.8.2-1.25.35v-.95c.3-.15.7-.25 1.1-.349.4-.1.8-.1 1.15-.1 1.65 0 2.5.75 2.5 2.25v4.549h-.75v-.05Zm-2.3-.75c.4 0 .75-.1 1.1-.35.35-.25.6-.55.8-.9v-1.25H66.8c-.6 0-1 .1-1.3.3-.3.2-.4.55-.4.95 0 .4.1.7.3.9.3.2.6.35.95.35Zm9.613-.497v.95c-.55.3-1.2.45-2 .45-1.05 0-1.8-.3-2.3-.9-.5-.6-.8-1.5-.8-2.65 0-1.1.3-1.9.85-2.499.55-.6 1.35-.9 2.35-.9.65 0 1.2.15 1.75.4v.95c-.55-.3-1.1-.4-1.55-.4-1.45 0-2.2.8-2.2 2.45 0 .9.15 1.55.5 1.95.35.4.85.65 1.6.65.3 0 .6-.05.9-.1.2-.1.55-.2.9-.35Zm1.34 1.247v-8.65l-.65-.4v-.449h1.8v9.549h-1.15v-.05Zm8.103-.347c-.25.15-.55.25-.95.35-.4.1-.85.15-1.3.15-1.049 0-1.849-.3-2.399-.9-.55-.6-.8-1.45-.8-2.65 0-1.1.25-1.95.75-2.549.5-.6 1.25-.85 2.2-.85 1.85 0 2.8 1 2.8 3.05v.75h-4.6c.05.75.25 1.3.6 1.65.35.35.85.5 1.55.5.4 0 .75-.05 1.1-.1.35-.1.7-.2 1.05-.35v.95Zm-2.5-5.499c-.55 0-.999.15-1.299.5-.3.35-.5.8-.5 1.45h3.5c0-.7-.15-1.2-.4-1.5-.25-.3-.7-.45-1.3-.45Zm7.394 5.844v-9.249h1.1l4.948 7.299v-7.299h1.15v9.249h-1.1l-4.949-7.3v7.3H90.3Zm14.256-.345c-.25.15-.55.25-.95.35-.4.1-.85.15-1.3.15-1.049 0-1.849-.3-2.4-.9-.55-.6-.8-1.45-.8-2.65 0-1.1.25-1.95.75-2.549.501-.6 1.251-.85 2.201-.85 1.849 0 2.799 1 2.799 3.05v.75h-4.599c.05.75.25 1.3.6 1.65.35.35.85.5 1.549.5.4 0 .75-.05 1.1-.1.35-.1.7-.2 1.05-.35v.95Zm-2.499-5.499c-.55 0-1 .15-1.3.5-.3.35-.5.8-.5 1.45h3.499c0-.7-.15-1.2-.4-1.5-.25-.3-.7-.45-1.299-.45Zm3.44 5.847 2.399-3.4-2.299-3.199h1.299l1.7 2.5 1.75-2.5h1.15l-2.3 3.2 2.4 3.45h-1.3l-1.85-2.75-1.9 2.75h-1.049v-.05Zm7.752-2.001v-3.7h-1.15v-.6l1.15-.4.45-1.799h.7v1.85h1.45v.95h-1.45v3.65c0 .749.3 1.099.95 1.099h.3c.1 0 .2 0 .25-.05v1c-.1.05-.25.05-.35.05h-.4c-.65 0-1.15-.15-1.45-.5-.25-.35-.45-.85-.45-1.55ZM50.612 59.376v-9.249h5.699v1h-4.5v3.05h4.15v1h-4.15v3.149h4.65v1h-5.85v.05Zm12.149-.004-.2-1.05c-.25.4-.6.7-.95.9-.4.2-.8.3-1.3.3-.85 0-1.55-.3-2.05-.9-.5-.6-.75-1.45-.75-2.55 0-1.1.25-1.95.75-2.55.5-.6 1.2-.9 2.1-.9.35 0 .75.05 1.1.2.35.15.65.35.95.6v-3.599h1.15v9.549h-.8Zm-4.05-3.3c0 .8.15 1.45.45 1.85.3.45.75.65 1.35.65.4 0 .75-.1 1.1-.3.35-.2.6-.5.8-.9v-2.95c-.5-.6-1.15-.9-1.85-.9-.6 0-1.05.2-1.4.65-.3.45-.45 1.05-.45 1.9Zm6.649.752v-4.1h1.15v4.05c0 .55.1 1 .35 1.3.25.3.6.45 1.1.45.4 0 .75-.15 1.15-.4.35-.3.6-.65.8-1.1v-4.35h1.15v6.65h-.8l-.2-1.15c-.25.4-.6.7-1 .95s-.85.35-1.35.35c-.75 0-1.3-.25-1.7-.7-.45-.4-.65-1.05-.65-1.95Zm12.248 1.298v.95c-.55.3-1.2.45-2 .45-1.05 0-1.8-.3-2.3-.9-.5-.6-.8-1.5-.8-2.65 0-1.1.3-1.899.85-2.499.55-.6 1.35-.9 2.35-.9.65 0 1.2.15 1.75.4v.95c-.55-.3-1.1-.4-1.55-.4-1.45 0-2.2.8-2.2 2.45 0 .9.15 1.55.5 1.95.35.4.85.65 1.6.65.3 0 .6-.05.9-.1.25-.1.55-.2.9-.35Zm5.541 1.25-.2-1.05c-.55.8-1.3 1.2-2.2 1.2-.65 0-1.2-.2-1.6-.55-.4-.4-.6-.9-.6-1.5 0-.7.25-1.25.7-1.6.5-.4 1.15-.6 2-.6h1.55v-.4c0-.5-.1-.8-.3-1-.2-.2-.55-.3-1.05-.3-.3 0-.65.05-1.05.1-.35.05-.8.2-1.25.35v-.949c.3-.15.7-.25 1.1-.35.4-.1.8-.1 1.15-.1 1.65 0 2.5.75 2.5 2.25v4.55h-.75v-.05Zm-2.25-.75c.4 0 .75-.1 1.1-.35.35-.25.6-.55.8-.9v-1.25h-1.45c-.6 0-1 .1-1.3.3-.3.2-.4.55-.4.95 0 .4.1.7.3.9.25.2.55.35.95.35ZM86 57.373v-3.7h-1.15v-.6l1.15-.4.45-1.799h.7v1.85h1.45v.95h-1.5v3.65c0 .749.3 1.099.95 1.099h.3c.1 0 .2 0 .25-.05v1c-.1.05-.25.05-.35.05h-.4c-.65 0-1.15-.15-1.45-.5-.25-.35-.4-.85-.4-1.55Zm4.309 2.001v-5.749l-.65-.4v-.45h1.8v6.65h-1.15v-.05Zm-.3-8.198v-1h1.4v1.05h-1.4v-.05Zm6.046 8.346c-1 0-1.8-.3-2.35-.9-.55-.6-.85-1.45-.85-2.55 0-1.1.3-1.95.85-2.55.55-.599 1.35-.899 2.35-.899s1.8.3 2.35.9c.55.6.85 1.45.85 2.55 0 1.1-.3 1.9-.85 2.55-.55.6-1.35.9-2.35.9Zm0-.95c.65 0 1.15-.2 1.5-.65.35-.45.5-1.05.5-1.9 0-.85-.15-1.45-.5-1.9-.35-.45-.85-.65-1.5-.65s-1.15.2-1.5.65c-.35.45-.5 1.05-.5 1.9 0 .85.15 1.45.5 1.9.35.45.85.65 1.5.65Zm4.649.8v-6.649h.8l.199 1.15c.3-.4.6-.7 1.05-.95.45-.25.85-.35 1.4-.35.75 0 1.35.25 1.75.7.4.45.6 1.1.6 2v4.1h-1.15v-4.05c0-1.15-.5-1.75-1.5-1.75-.4 0-.8.15-1.15.4-.35.25-.6.6-.8 1.05v4.35h-1.199Z"/><path fill="#81A378" d="M27.916 37.126c-5.999.8-27.646-.5-27.646-.5l1.45-8.998c0-.1.1-.2.2-.25.7-.15 3.65-.75 11.598-.75 7.8 0 17.148.55 20.097.75.55.05.95.2.95.75v2.95c.05 3.349.6 5.049-6.649 6.048Z"/><path fill="#82B1B4" d="M35.116 23.725c-.05.1-.15.15-.3.15-1.1.2-7.349 1.2-13.598.6-5.549-.55-9.448-.65-10.748-.65-.25 0-.45-.25-.45-.5l.35-5.9c.15-1.999 3.2-3.499 5.2-3.599l20.396-.85c.2 0 .4.1.45.3.2.55.6 1.8.65 4.1.1 3.5-1.5 5.8-1.95 6.349Z"/><path fill="#DA8A40" d="m35.86 10.479-14.348.75c-1.55.15-2.85-1.5-2.6-3.3l1-7.099H34.71c2.45.05 1.15 9.649 1.15 9.649Z"/></svg>